<svg width="85" height="85" viewBox="0 0 85 85" fill="none" xmlns="http://www.w3.org/2000/svg">
<g filter="url(#filter0_d_1159_6)">
<path fill-rule="evenodd" clip-rule="evenodd" d="M42.3125 0.57177C63.1653 0.57177 80.0524 17.4995 80.0524 38.312C80.0524 59.1649 63.1653 76.0928 42.3125 76.0928C21.4594 76.0928 4.53174 59.1649 4.53174 38.312C4.53174 17.4995 21.4594 0.57177 42.3125 0.57177Z" fill="white"/>
<path fill-rule="evenodd" clip-rule="evenodd" d="M42.3125 -0.000144958C52.9027 -0.000144958 62.4706 4.29291 69.3807 11.2442C76.3315 18.1543 80.625 27.7628 80.625 38.3123C80.625 48.9021 76.3315 58.4702 69.3807 65.4212C62.4706 72.3722 52.9027 76.6246 42.3125 76.6655C31.7225 76.6246 22.1544 72.3722 15.2036 65.4212C8.29324 58.4702 4 48.9021 4 38.3123C4 27.7628 8.29324 18.1543 15.2036 11.2442C22.1544 4.29291 31.7225 -0.000144958 42.3125 -0.000144958ZM42.3125 1.14476C32.0494 1.14476 22.7268 5.31533 16.0212 12.0207C9.27462 18.7677 5.10415 28.0494 5.10415 38.3123C5.10415 48.5751 9.27462 57.8977 16.0212 64.6034C22.7268 71.35 32.0494 75.5206 42.3125 75.5206C52.5754 75.5206 61.8572 71.35 68.6037 64.6034C75.3095 57.8977 79.4801 48.5751 79.4801 38.3123C79.4801 28.0494 75.3095 18.7677 68.6037 12.0207C61.8572 5.31533 52.5754 1.14476 42.3125 1.14476Z" fill="#231F20"/>
<path fill-rule="evenodd" clip-rule="evenodd" d="M42.2303 10.508C57.4409 10.508 69.8301 22.8566 69.8301 38.1078C69.8301 53.3183 57.4409 65.7075 42.2303 65.7075C26.9791 65.7075 14.6306 53.3183 14.6306 38.1078C14.6306 22.8566 26.9791 10.508 42.2303 10.508Z" fill="#00ADEF"/>
<path fill-rule="evenodd" clip-rule="evenodd" d="M42.2302 10.018V10.0587C49.9579 10.0587 56.991 13.1661 62.0611 18.2773C67.1316 23.3474 70.2797 30.3393 70.2797 38.1082C70.2797 45.8361 67.1316 52.869 62.0611 57.9392C56.991 63.0091 49.9579 66.1577 42.2302 66.1577C34.4615 66.1577 27.4695 63.0091 22.3994 57.9392C17.2885 52.869 14.1808 45.8361 14.1808 38.1082H14.1399H14.1808C14.1808 30.3393 17.2885 23.3474 22.3994 18.2773C27.4695 13.1661 34.4615 10.0587 42.2302 10.0587V10.018ZM42.2302 10.9993C34.7476 10.9993 27.9603 14.0249 23.0537 18.9313C18.147 23.8382 15.1211 30.6254 15.1211 38.1082C15.1211 45.5907 18.147 52.3782 23.0537 57.2849C27.9603 62.1915 34.7476 65.2171 42.2302 65.2171C49.7125 65.2171 56.5006 62.1915 61.407 57.2849C66.3134 52.3782 69.3391 45.5907 69.3391 38.1082C69.3391 30.6254 66.3134 23.8382 61.407 18.9313C56.5006 14.0249 49.7125 10.9993 42.2302 10.9993Z" fill="#231F20"/>
<path fill-rule="evenodd" clip-rule="evenodd" d="M40.1862 31.8516C40.3497 30.6249 44.2749 30.257 45.2562 31.6473C46.1968 32.3013 44.9294 42.1148 44.5615 44.2818C44.2749 44.8542 40.4316 44.6498 40.5543 43.6684C40.1862 33.0377 39.7365 32.1789 40.1862 31.8516Z" fill="#FFF200"/>
<path d="M40.1869 31.8521C40.3504 30.6258 44.2756 30.2574 45.2569 31.6478C46.1975 32.3018 44.9301 42.1153 44.5622 44.2823C44.2756 44.8547 40.4323 44.6503 40.555 43.6689C40.1869 33.0381 39.7373 32.1793 40.1869 31.8521V31.8521Z" stroke="#00ADEF" stroke-width="0.341847" stroke-miterlimit="2.6131"/>
<path fill-rule="evenodd" clip-rule="evenodd" d="M47.3007 31.8513C49.5499 32.3829 51.5124 33.2417 51.5124 34.223C51.676 38.3526 49.059 44.0773 48.2413 44.8949C47.3825 45.3446 45.052 44.9766 44.9702 44.159C46.7285 32.9967 45.2975 31.7695 47.3007 31.8513Z" fill="#FFF200"/>
<path d="M47.3 31.8513C49.5491 32.3829 51.5117 33.2417 51.5117 34.223C51.6753 38.3526 49.0582 44.0773 48.2406 44.8949C47.3818 45.3446 45.0513 44.9766 44.9695 44.159C46.7278 32.9967 45.2967 31.7695 47.3 31.8513V31.8513Z" stroke="#00ADEF" stroke-width="0.341847" stroke-miterlimit="2.6131"/>
<path fill-rule="evenodd" clip-rule="evenodd" d="M34.7076 33.324C35.1573 31.6068 37.3243 31.4021 38.7962 31.77C40.0639 32.179 39.7368 35.6544 40.1048 43.5051C39.9413 44.3231 36.7111 44.2411 36.0158 43.0554C35.8932 38.9257 35.8932 37.0857 35.648 35.532C35.5252 34.8368 34.5439 34.9593 34.7076 33.324Z" fill="#FFF200"/>
<path d="M34.7078 33.3244C35.1575 31.6073 37.3245 31.4025 38.7965 31.7705C40.0641 32.1795 39.7371 35.6549 40.1051 43.5056C39.9415 44.3236 36.7113 44.2416 36.0161 43.0559C35.8935 38.9262 35.8935 37.0862 35.6483 35.5324C35.5255 34.8373 34.5441 34.9602 34.7078 33.3244V33.3244Z" stroke="#00ADEF" stroke-width="0.341847" stroke-miterlimit="2.6131"/>
<path fill-rule="evenodd" clip-rule="evenodd" d="M36.0159 43.7506C36.9156 44.2411 38.7555 44.691 40.1049 44.1185C40.7999 43.4235 40.3093 45.427 39.655 45.5496C39.2461 45.8768 36.7111 45.754 36.4657 45.3451C36.2203 44.9364 35.8523 44.0369 36.0159 43.7506Z" fill="#FFF200"/>
<path d="M36.0154 43.7505C36.9151 44.2411 38.755 44.691 40.1044 44.1186C40.7994 43.4235 40.3089 45.4269 39.6546 45.5496C39.2456 45.8768 36.7106 45.754 36.4653 45.3451C36.2199 44.9363 35.8519 44.0369 36.0154 43.7505Z" stroke="#00ADEF" stroke-width="0.341847" stroke-miterlimit="2.6131"/>
<path fill-rule="evenodd" clip-rule="evenodd" d="M35.2795 43.7503C35.5249 43.9548 35.852 44.9769 36.0974 45.2632C35.6477 45.7538 34.0121 45.6721 33.317 45.018C33.0716 44.4863 32.4175 43.9548 32.8264 43.7503C33.685 44.0366 34.6664 43.8729 35.2795 43.7503Z" fill="#FFF200"/>
<path d="M35.2793 43.7503C35.5247 43.9548 35.8518 44.9769 36.0971 45.2632C35.6475 45.7538 34.0118 45.6721 33.3168 45.018C33.0714 44.4863 32.4173 43.9548 32.8262 43.7503C33.6848 44.0367 34.6661 43.8729 35.2793 43.7503V43.7503Z" stroke="#00ADEF" stroke-width="0.341847" stroke-miterlimit="2.6131"/>
<path fill-rule="evenodd" clip-rule="evenodd" d="M35.4838 67.1392L34.1754 72.6997L33.0715 72.4136L34.3389 66.8938L35.4838 67.1392ZM33.2759 66.5667L31.2315 71.8821L30.2092 71.4732L29.3916 67.098L28.0422 70.6555L27.0199 70.2875L29.0645 64.972L30.1685 65.3809L30.9452 69.6741L32.2945 66.1986L33.2759 66.5667ZM26.8973 63.7045L24.3214 67.6705L25.7117 68.6111L25.2209 69.3878L21.4182 66.9345L21.95 66.1169L23.34 67.0573L25.9159 63.0913L26.8973 63.7045ZM23.9125 61.7827L20.028 65.9532L16.9205 63.0502L17.5748 62.3551L19.8237 64.4405L20.6823 63.541L18.5969 61.5782L19.2512 60.8832L21.3365 62.8459L22.3996 61.701L20.0691 59.5338L20.7232 58.8386L23.9125 61.7827ZM19.9872 58.1435L15.4486 61.5782L13.9766 59.6157C13.6086 59.1249 13.3634 58.7569 13.2814 58.4708C13.1997 58.1847 13.2406 57.8983 13.3223 57.612C13.4451 57.3259 13.6495 57.0807 13.8947 56.876C14.2627 56.6308 14.59 56.5081 14.958 56.549C15.3259 56.5899 15.694 56.7535 16.0619 57.1212C16.021 56.8353 16.021 56.5899 16.0619 56.3445C16.1436 56.0993 16.2255 55.7721 16.4299 55.2813L16.8798 54.0547L17.7383 55.1587L17.2475 56.549C17.0433 57.0396 16.9614 57.3666 16.9205 57.5304C16.9205 57.6939 16.9205 57.8165 16.9614 57.98C17.0023 58.1026 17.084 58.2661 17.2475 58.4708L17.3704 58.6343L19.292 57.2033L19.9872 58.1435ZM16.6753 59.2066L16.1436 58.5115C15.8165 58.0619 15.5711 57.8165 15.4895 57.7348C15.3667 57.6529 15.2034 57.612 15.0805 57.612C14.958 57.612 14.7944 57.6939 14.6717 57.7757C14.5081 57.8983 14.4263 58.0209 14.3853 58.1847C14.3446 58.348 14.3853 58.5115 14.4674 58.6753C14.5081 58.7569 14.6717 58.9612 14.958 59.3293L15.4895 60.0653L16.6753 59.2066ZM16.5116 53.5232L11.3598 55.9356L10.8692 54.9133L13.3634 51.1927L9.88778 52.828L9.43795 51.8468L14.59 49.4344L15.0805 50.4975L12.7091 54.1366L16.0619 52.5828L16.5116 53.5232ZM12.7499 43.3421L13.0771 44.5278L11.9731 45.3864L12.6272 47.5535L13.9766 47.6352L14.3036 48.8211L8.25214 48.2488L7.88431 47.1037L12.7499 43.3421ZM11.1553 45.9997L9.35609 47.3082L11.605 47.4717L11.1553 45.9997ZM12.6682 42.0335L7.96598 42.5241L8.17047 44.2007L7.18909 44.3235L6.73926 39.8256L7.67968 39.703L7.8434 41.3794L12.5454 40.8886L12.6682 42.0335ZM12.4228 38.5172L6.73926 38.3129L6.78017 37.1678L12.4637 37.3315L12.4228 38.5172ZM9.56072 36.0639C8.98812 35.9821 8.53844 35.8596 8.17047 35.6142C7.88431 35.4505 7.63892 35.2462 7.47539 35.0008C7.27076 34.7554 7.14818 34.4693 7.06651 34.1827C6.94389 33.8152 6.94389 33.4062 6.98465 32.9564C7.10742 32.0976 7.47539 31.4843 8.04784 31.0757C8.62011 30.6255 9.39705 30.503 10.2967 30.6255C11.2371 30.7484 11.8913 31.0757 12.3409 31.6479C12.7908 32.2201 12.9545 32.9153 12.8317 33.7329C12.7091 34.5917 12.382 35.2051 11.7687 35.6548C11.196 36.0639 10.46 36.2275 9.56072 36.0639ZM9.68334 34.919C10.3375 35.0008 10.8283 34.919 11.196 34.6736C11.5642 34.4281 11.8096 34.0602 11.8503 33.6105C11.9322 33.1607 11.8096 32.7521 11.5233 32.4249C11.2371 32.0976 10.7873 31.8933 10.1332 31.7704C9.47886 31.6886 8.98812 31.7704 8.62011 32.0158C8.25214 32.2613 8.04784 32.588 7.96598 33.0789C7.92507 33.5286 8.00694 33.9377 8.29304 34.265C8.57939 34.5917 9.02922 34.7965 9.68334 34.919ZM13.4451 30.1351L8.04784 28.295L8.41567 27.2319L12.7499 26.2506L9.19275 25.0239L9.51962 24.0019L14.9171 25.8827L14.5081 26.9458L10.2558 27.9271L13.7721 29.1126L13.4451 30.1351ZM18.1063 20.3629L17.4929 21.4255L16.1027 21.2212L14.958 23.1843L15.8575 24.2469L15.2441 25.2693L11.4414 20.5265L12.0141 19.463L18.1063 20.3629ZM15.0805 21.0576L12.8726 20.6897L14.3036 22.4068L15.0805 21.0576ZM18.5969 19.9127L14.3446 16.1923L15.0805 15.3335L18.6378 18.3999L20.5187 16.233L21.214 16.887L18.5969 19.9127ZM24.4031 14.2704L21.7046 10.4271L20.3143 11.3673L19.7828 10.5903L23.4626 8.01435L24.0353 8.79134L22.645 9.77262L25.3435 13.6159L24.4031 14.2704ZM31.4769 10.2224L30.332 10.7946L29.3097 9.85443L27.3062 10.8764L27.4698 12.2667L26.3658 12.7983L25.7524 6.74696L26.8566 6.17426L31.4769 10.2224ZM28.5328 9.15925L26.8973 7.64642L27.1834 9.8951L28.5328 9.15925ZM32.1312 10.0181L30.6591 4.53895L34.7071 3.43472L34.9525 4.37532L32.0084 5.15231L32.3355 6.37904L35.0751 5.64272L35.3203 6.58333L32.5809 7.31917L32.9898 8.79134L36.0564 7.97368L36.3016 8.91381L32.1312 10.0181ZM37.2012 8.62771L36.8332 2.94431L37.9781 2.8625L38.1418 5.39775L40.2679 2.69887L41.8217 2.61705L39.8182 4.94802L42.3123 8.25979L40.8403 8.38226L39.0821 5.80634L38.2234 6.82829L38.3461 8.5459L37.2012 8.62771ZM43.7435 8.38226L43.0892 2.53524L44.2341 2.69887L44.602 6.66514L46.1149 2.94431L47.5052 3.10745L47.9956 7.15554L49.3453 3.31223L50.4902 3.47586L48.4453 8.95496L47.2191 8.79134L46.6053 4.41647L44.9699 8.50523L43.7435 8.38226ZM51.1849 6.66514C51.3892 6.09293 51.6346 5.68386 51.9619 5.39775C52.1662 5.15231 52.4528 4.98869 52.7389 4.82506C53.025 4.70258 53.3111 4.62077 53.5972 4.62077C54.0063 4.62077 54.4153 4.70258 54.8239 4.86572C55.6009 5.15231 56.1325 5.64272 56.4186 6.29723C56.7051 6.99239 56.7051 7.72824 56.3368 8.58656C56.01 9.44536 55.5191 10.0587 54.8651 10.3448C54.2106 10.6721 53.5159 10.6721 52.7389 10.3448C51.9619 10.0587 51.3892 9.56832 51.1442 8.91381C50.8576 8.25978 50.8576 7.4828 51.1849 6.66514ZM52.3298 7.03307C52.0848 7.64642 52.0437 8.13731 52.2073 8.58656C52.3709 8.99563 52.6571 9.28222 53.0661 9.44537C53.5159 9.60899 53.9244 9.56832 54.2924 9.36355C54.7014 9.15926 55.0287 8.75067 55.2741 8.13731C55.4784 7.56461 55.5191 7.03307 55.3966 6.62399C55.233 6.21541 54.9469 5.9293 54.4971 5.76568C54.0469 5.60205 53.6383 5.64272 53.2293 5.80634C52.8614 6.01064 52.5341 6.4197 52.3298 7.03307ZM56.1325 11.6945L59.1581 6.86944L60.0987 7.44166L60.0576 11.8988L62.1024 8.70952L63.0019 9.24107L59.9762 14.0657L58.9945 13.4523L59.0356 9.11859L57.0731 12.2667L56.1325 11.6945ZM61.734 13.6978L62.4704 12.8394L64.1057 14.2298L63.4105 15.0474L61.734 13.6978ZM67.295 12.8394L68.6446 14.4341C68.9714 14.802 69.1757 15.0881 69.2987 15.3335C69.4212 15.6196 69.503 15.9876 69.4623 16.3148C69.4212 16.6416 69.2987 17.01 69.0939 17.3368C68.9308 17.664 68.6035 17.9913 68.2356 18.3592C67.8677 18.6453 67.5404 18.8907 67.1725 19.0132C66.8046 19.1769 66.3955 19.2587 66.0276 19.218C65.7415 19.1768 65.4554 19.095 65.1688 18.8907C64.9233 18.7683 64.6779 18.5228 64.3918 18.1956L63.0019 16.6009L67.295 12.8394ZM67.295 14.3523L64.4736 16.8052L65.0051 17.4597C65.2506 17.7052 65.4142 17.8683 65.5367 17.9501C65.6596 18.0731 65.8228 18.1138 65.9869 18.1549C66.15 18.1549 66.3543 18.1138 66.5998 18.0319C66.8452 17.9095 67.1318 17.7052 67.4586 17.4191C67.8265 17.1325 68.0313 16.887 68.1538 16.6827C68.2762 16.4373 68.3581 16.233 68.3581 16.0694C68.3581 15.8651 68.3174 15.6603 68.2356 15.4972C68.1538 15.3335 67.9495 15.0881 67.6222 14.7202L67.295 14.3523ZM69.0532 19.3405C69.5436 19.0544 69.9938 18.8907 70.4436 18.8501C70.7704 18.8089 71.0569 18.8089 71.3837 18.8907C71.711 18.9726 71.9564 19.095 72.2019 19.2998C72.488 19.5041 72.7741 19.8309 73.0195 20.24C73.4286 20.9351 73.5099 21.671 73.3463 22.3661C73.142 23.0613 72.6516 23.6335 71.8339 24.0837C71.0158 24.5741 70.28 24.6971 69.5848 24.5335C68.8896 24.3699 68.3174 23.9201 67.9083 23.1843C67.4993 22.448 67.3768 21.7528 67.5811 21.0576C67.7858 20.3629 68.2762 19.7902 69.0532 19.3405ZM69.6666 20.3218C69.0939 20.649 68.7671 21.0169 68.6446 21.4667C68.4805 21.8753 68.5217 22.2843 68.7671 22.6934C68.9714 23.102 69.2987 23.3474 69.7484 23.4292C70.1981 23.511 70.6885 23.3886 71.2612 23.0613C71.8339 22.7341 72.1607 22.3661 72.3243 21.9576C72.4473 21.5485 72.4061 21.1399 72.1607 20.7304C71.9153 20.3218 71.5885 20.0763 71.1794 19.995C70.7297 19.9127 70.2388 19.995 69.6666 20.3218ZM70.4436 28.4586L75.9227 26.9051L77.0264 30.6666L76.0863 30.912L75.3093 28.295L74.0415 28.6629L74.696 30.9527L73.7553 31.1982L73.1008 28.9083L70.7704 29.5624L70.4436 28.4586ZM71.711 33.1607L77.3944 32.6703L77.7623 36.8817L76.781 36.9634L76.5356 33.897L75.2687 34.0195L75.5136 36.8817L74.573 36.9634L74.2869 34.1013L72.7741 34.2238L73.0602 37.413L72.0789 37.4949L71.711 33.1607ZM77.8034 38.9261L77.6398 41.0114C77.5991 41.502 77.5173 41.8291 77.435 42.0745C77.3126 42.4015 77.1083 42.6878 76.8222 42.8923C76.5356 43.0967 76.2495 43.2601 75.8409 43.3421C75.4729 43.4238 75.0232 43.4648 74.4912 43.4238C74.0415 43.3829 73.6329 43.301 73.3056 43.1375C72.897 42.974 72.6104 42.7286 72.365 42.4424C72.2019 42.2382 72.0789 41.9518 71.9971 41.5837C71.9153 41.3385 71.9153 41.0114 71.9564 40.5616L72.12 38.4355L77.8034 38.9261ZM76.7403 39.9891L72.9784 39.6621L72.9377 40.5206C72.897 40.807 72.897 41.0522 72.897 41.2159C72.9377 41.3794 73.0195 41.543 73.1008 41.6655C73.2238 41.8291 73.3874 41.9518 73.6329 42.0335C73.8783 42.1154 74.2051 42.197 74.6548 42.2382C75.1046 42.2787 75.4318 42.2787 75.6772 42.197C75.9227 42.1561 76.127 42.0745 76.2495 41.9518C76.4131 41.7883 76.4949 41.6246 76.5767 41.4201C76.6174 41.2568 76.6585 40.9705 76.6997 40.4797L76.7403 39.9891ZM71.5067 44.1188L76.9858 45.5908L75.9227 49.6798L74.9821 49.4344L75.7591 46.4494L74.5323 46.1225L73.7965 48.9027L72.897 48.6575L73.6329 45.8771L72.12 45.5091L71.3019 48.5757L70.3618 48.3303L71.5067 44.1188ZM70.0345 49.2707L75.1457 51.7651L74.0826 53.932C73.7965 54.4636 73.5511 54.8726 73.3463 55.077C73.142 55.2405 72.897 55.3632 72.5698 55.4041C72.2832 55.445 71.9564 55.4041 71.6698 55.2405C71.2612 55.0359 71.0158 54.7907 70.8933 54.4227C70.7297 54.0957 70.7297 53.6867 70.8933 53.196C70.6479 53.3597 70.4436 53.4823 70.1981 53.5232C69.9527 53.6051 69.5848 53.6868 69.0939 53.7277L67.7858 53.8505L68.3992 52.6237L69.8709 52.4193C70.4024 52.3374 70.7297 52.2966 70.8933 52.2555C71.0158 52.2148 71.1388 52.1329 71.2206 52.0512C71.343 51.9694 71.4249 51.8059 71.5473 51.5605L71.6698 51.356L69.503 50.293L70.0345 49.2707ZM72.488 51.7242L72.0789 52.5009C71.8746 52.9917 71.711 53.3187 71.711 53.4414C71.6698 53.6051 71.711 53.7277 71.7928 53.8505C71.8339 53.973 71.9564 54.0547 72.12 54.1366C72.2832 54.2183 72.4473 54.2592 72.6104 54.2182C72.7334 54.1773 72.897 54.0547 72.9784 53.932C73.0195 53.8505 73.1831 53.6051 73.3874 53.1553L73.7553 52.3783L72.488 51.7242ZM64.3104 58.4299L65.0463 57.4485L66.3955 57.7757L67.704 55.9356L66.9682 54.8317L67.6629 53.8093L70.9751 58.9612L70.2388 59.9426L64.3104 58.4299ZM67.3768 58.0619L69.5436 58.6753L68.2762 56.7944L67.3768 58.0619ZM63.288 59.3293L66.4773 62.7639L67.7447 61.6192L68.3992 62.3142L65.087 65.4218L64.4329 64.6858L65.6596 63.541L62.4292 60.1063L63.288 59.3293ZM60.5485 61.6192L63.9014 66.2395L62.9608 66.8938L59.6078 62.3142L60.5485 61.6192ZM60.3437 65.3399C60.6303 65.8715 60.7939 66.3213 60.8346 66.7712C60.8757 67.0573 60.8346 67.3844 60.7528 67.7116C60.6709 67.9977 60.5485 68.2839 60.3437 68.4883C60.0987 68.8156 59.8121 69.0608 59.4036 69.3062C58.6677 69.7151 57.9319 69.797 57.2367 69.5925C56.5415 69.3878 56.01 68.8565 55.5602 68.0385C55.1105 67.2617 54.9469 66.4849 55.1512 65.7898C55.3559 65.0946 55.8052 64.5631 56.5415 64.1541C57.2774 63.7452 57.9725 63.6635 58.6677 63.8678C59.3624 64.0725 59.9351 64.5631 60.3437 65.3399ZM59.3217 65.9532C59.0356 65.4218 58.6677 65.0538 58.218 64.8903C57.8089 64.7675 57.3998 64.8084 56.9913 65.0129C56.6233 65.2172 56.3367 65.5444 56.2554 65.9941C56.1736 66.4439 56.2554 66.9345 56.5822 67.5071C56.9094 68.0794 57.2774 68.4476 57.6864 68.5702C58.095 68.7337 58.5041 68.6928 58.9127 68.4476C59.3217 68.2022 59.5672 67.8752 59.6897 67.4662C59.7715 67.0573 59.649 66.5258 59.3217 65.9532ZM53.3111 65.8305L54.9875 71.2687L53.8838 71.5959L50.5715 68.6519L51.6758 72.291L50.6533 72.6182L48.9769 67.1799L50.0811 66.8119L53.3522 69.7151L52.2891 66.1578L53.3111 65.8305Z" fill="#231F20"/>
<path d="M35.4838 67.1387L34.1754 72.6992L33.0715 72.4131L34.3389 66.8933L35.4838 67.1387ZM33.2759 66.5662L31.2315 71.8816L30.2092 71.4727L29.3916 67.0975L28.0422 70.655L27.0199 70.2871L29.0645 64.9715L30.1685 65.3804L30.9452 69.6737L32.2946 66.1981L33.2759 66.5662ZM26.8973 63.704L24.3214 67.67L25.7117 68.6106L25.2209 69.3874L21.4182 66.9341L21.95 66.1164L23.34 67.0568L25.9159 63.0908L26.8973 63.704ZM23.9125 61.7822L20.028 65.9527L16.9205 63.0497L17.5748 62.3547L19.8237 64.44L20.6823 63.5405L18.5969 61.5777L19.2512 60.8827L21.3365 62.8454L22.3996 61.7005L20.0691 59.5333L20.7232 58.8381L23.9125 61.7822ZM19.9872 58.143L15.4486 61.5777L13.9766 59.6152C13.6086 59.1244 13.3634 58.7564 13.2814 58.4703C13.1997 58.1842 13.2406 57.8978 13.3223 57.6115C13.4451 57.3254 13.6495 57.0802 13.8947 56.8755C14.2627 56.6303 14.59 56.5076 14.958 56.5485C15.3259 56.5894 15.694 56.753 16.0619 57.1207C16.021 56.8348 16.021 56.5894 16.0619 56.344C16.1436 56.0988 16.2255 55.7716 16.4299 55.2808L16.8798 54.0542L17.7383 55.1582L17.2476 56.5485C17.0433 57.0391 16.9614 57.3661 16.9205 57.5299C16.9205 57.6934 16.9205 57.816 16.9614 57.9795C17.0024 58.1021 17.0841 58.2657 17.2476 58.4703L17.3704 58.6338L19.292 57.2028L19.9872 58.143ZM16.6753 59.2061L16.1436 58.5111C15.8165 58.0614 15.5711 57.816 15.4895 57.7343C15.3667 57.6524 15.2034 57.6115 15.0806 57.6115C14.958 57.6115 14.7944 57.6934 14.6717 57.7753C14.5081 57.8978 14.4263 58.0205 14.3853 58.1842C14.3446 58.3475 14.3853 58.5111 14.4674 58.6748C14.5081 58.7564 14.6717 58.9607 14.958 59.3289L15.4895 60.0648L16.6753 59.2061ZM16.5116 53.5227L11.3598 55.9351L10.8692 54.9128L13.3634 51.1922L9.88778 52.8275L9.43795 51.8463L14.59 49.4339L15.0806 50.497L12.7091 54.1361L16.0619 52.5823L16.5116 53.5227ZM12.7499 43.3416L13.0771 44.5273L11.9731 45.3859L12.6272 47.5531L13.9766 47.6347L14.3036 48.8206L8.25214 48.2483L7.88431 47.1032L12.7499 43.3416ZM11.1553 45.9992L9.35609 47.3077L11.605 47.4712L11.1553 45.9992ZM12.6682 42.0331L7.96598 42.5237L8.17047 44.2003L7.18909 44.323L6.73926 39.8251L7.67968 39.7025L7.8434 41.3789L12.5454 40.8882L12.6682 42.0331ZM12.4228 38.5167L6.73926 38.3124L6.78017 37.1674L12.4637 37.331L12.4228 38.5167ZM9.56072 36.0634C8.98812 35.9816 8.53844 35.8591 8.17047 35.6137C7.88431 35.4501 7.63892 35.2458 7.47544 35.0003C7.27076 34.7549 7.14818 34.4688 7.06651 34.1822C6.94389 33.8147 6.94389 33.4057 6.98465 32.9559C7.10742 32.0971 7.47544 31.4838 8.04784 31.0752C8.62011 30.6255 9.39705 30.5025 10.2967 30.6255C11.2372 30.7479 11.8913 31.0752 12.3409 31.6474C12.7908 32.2196 12.9545 32.9148 12.8317 33.7324C12.7091 34.5912 12.382 35.2046 11.7687 35.6543C11.196 36.0634 10.46 36.227 9.56072 36.0634V36.0634ZM9.68334 34.9185C10.3375 35.0003 10.8283 34.9185 11.196 34.6731C11.5642 34.4276 11.8096 34.0597 11.8503 33.61C11.9322 33.1602 11.8096 32.7516 11.5233 32.4244C11.2372 32.0971 10.7873 31.8928 10.1332 31.7699C9.47891 31.6881 8.98812 31.7699 8.62011 32.0153C8.25214 32.2608 8.04784 32.5875 7.96598 33.0784C7.92507 33.5282 8.00694 33.9372 8.29304 34.2645C8.57939 34.5912 9.02922 34.796 9.68334 34.9185ZM13.4451 30.1346L8.04784 28.2945L8.41567 27.2314L12.7499 26.2501L9.19275 25.0234L9.51962 24.0014L14.9171 25.8822L14.5081 26.9453L10.2558 27.9266L13.7721 29.1121L13.4451 30.1346ZM18.1063 20.3624L17.4929 21.425L16.1027 21.2207L14.958 23.1838L15.8575 24.2464L15.2441 25.2688L11.4414 20.526L12.0141 19.4625L18.1063 20.3624ZM15.0806 21.0571L12.8726 20.6892L14.3036 22.4063L15.0806 21.0571ZM18.5969 19.9127L14.3446 16.1918L15.0806 15.333L18.6378 18.3994L20.5187 16.2325L21.214 16.8865L18.5969 19.9127ZM24.4031 14.27L21.7046 10.4266L20.3143 11.3668L19.7828 10.5898L23.4626 8.01386L24.0353 8.79085L22.645 9.77213L25.3435 13.6154L24.4031 14.27ZM31.4769 10.2219L30.332 10.7941L29.3097 9.85394L27.3062 10.8759L27.4698 12.2662L26.3658 12.7978L25.7524 6.74647L26.8566 6.17378L31.4769 10.2219ZM28.5328 9.15877L26.8973 7.64594L27.1835 9.89461L28.5328 9.15877ZM32.1312 10.0176L30.6591 4.53846L34.7071 3.4347L34.9525 4.37483L32.0084 5.15182L32.3355 6.37855L35.0751 5.64222L35.3203 6.58284L32.5809 7.31868L32.9898 8.79085L36.0565 7.97319L36.3017 8.91332L32.1312 10.0176ZM37.2012 8.62722L36.8332 2.94382L37.9781 2.862L38.1418 5.39726L40.2679 2.69838L41.8217 2.61704L39.8182 4.94753L42.3123 8.2593L40.8403 8.38226L39.0821 5.80633L38.2235 6.8278L38.3461 8.54541L37.2012 8.62722ZM43.7435 8.38226L43.0892 2.53475L44.2341 2.69838L44.602 6.66465L46.1149 2.94382L47.5052 3.10744L47.9956 7.15505L49.3453 3.31174L50.4902 3.47537L48.4453 8.95448L47.2191 8.79085L46.6053 4.41598L44.9699 8.50474L43.7435 8.38226ZM51.1849 6.66465C51.3892 6.09244 51.6346 5.68337 51.9619 5.39726C52.1662 5.15182 52.4528 4.9882 52.7389 4.82457C53.025 4.70209 53.3111 4.62028 53.5972 4.62028C54.0063 4.62028 54.4153 4.70209 54.8239 4.86572C55.6009 5.15182 56.1325 5.64223 56.4186 6.29673C56.7051 6.99191 56.7051 7.72775 56.3367 8.58607C56.01 9.44487 55.5191 10.0582 54.8651 10.3443C54.2106 10.6716 53.5159 10.6716 52.7389 10.3443C51.9619 10.0582 51.3892 9.56783 51.1442 8.91332C50.8576 8.2593 50.8576 7.48231 51.1849 6.66465ZM52.3298 7.03258C52.0848 7.64594 52.0437 8.13682 52.2073 8.58607C52.3709 8.99514 52.6571 9.28173 53.0661 9.44488C53.5159 9.6085 53.9245 9.56783 54.2924 9.36306C54.7014 9.15877 55.0287 8.75018 55.2741 8.13682C55.4784 7.56412 55.5191 7.03257 55.3966 6.62399C55.233 6.21492 54.9469 5.92881 54.4971 5.76519C54.0474 5.60156 53.6383 5.64223 53.2293 5.80633C52.8613 6.01015 52.5341 6.41922 52.3298 7.03258V7.03258ZM56.1325 11.694L59.1581 6.86895L60.0987 7.44165L60.0576 11.8983L62.1024 8.70904L63.0019 9.24058L59.9762 14.0652L58.995 13.4518L59.0356 9.1181L57.0731 12.2662L56.1325 11.694ZM61.734 13.6973L62.4704 12.8389L64.1057 14.2293L63.4105 15.0469L61.734 13.6973ZM67.295 12.8389L68.6446 14.4336C68.9714 14.8015 69.1757 15.0876 69.2987 15.333C69.4211 15.6192 69.503 15.9871 69.4623 16.3143C69.4212 16.6411 69.2987 17.0095 69.0944 17.3368C68.9308 17.6635 68.6035 17.9908 68.2356 18.3587C67.8677 18.6448 67.5404 18.8903 67.1725 19.0127C66.8046 19.1764 66.3955 19.2582 66.0276 19.2175C65.7415 19.1764 65.4554 19.0946 65.1688 18.8903C64.9233 18.7678 64.6779 18.5223 64.3918 18.1951L63.0019 16.6004L67.295 12.8389ZM67.295 14.3518L64.4736 16.8047L65.0051 17.4592C65.2506 17.7047 65.4142 17.8678 65.5367 17.9496C65.6596 18.0726 65.8228 18.1133 65.9869 18.1544C66.15 18.1544 66.3543 18.1133 66.5998 18.0315C66.8452 17.909 67.1318 17.7047 67.4586 17.4186C67.8265 17.132 68.0313 16.8865 68.1538 16.6822C68.2767 16.4368 68.3581 16.2325 68.3581 16.0689C68.3581 15.8646 68.3174 15.6598 68.2356 15.4967C68.1538 15.3331 67.9495 15.0876 67.6222 14.7197L67.295 14.3518ZM69.0532 19.34C69.5436 19.0539 69.9938 18.8903 70.4436 18.8496C70.7704 18.8084 71.0569 18.8084 71.3837 18.8903C71.711 18.9721 71.9564 19.0946 72.2019 19.2993C72.488 19.5036 72.7741 19.8304 73.0195 20.2399C73.4286 20.9346 73.5099 21.6705 73.3463 22.3657C73.142 23.0608 72.6516 23.633 71.8339 24.0833C71.0158 24.5737 70.28 24.6966 69.5848 24.533C68.8896 24.3694 68.3174 23.9196 67.9083 23.1838C67.4993 22.4475 67.3768 21.7523 67.5811 21.0571C67.7858 20.3624 68.2767 19.7897 69.0532 19.34ZM69.6666 20.3213C69.0944 20.6485 68.7671 21.0164 68.6446 21.4662C68.4805 21.8748 68.5217 22.2838 68.7671 22.6929C68.9714 23.102 69.2987 23.3469 69.7484 23.4287C70.1981 23.5106 70.6885 23.3881 71.2612 23.0608C71.8339 22.7336 72.1607 22.3656 72.3243 21.9571C72.4473 21.548 72.4061 21.1394 72.1607 20.7303C71.9153 20.3213 71.5885 20.0758 71.1794 19.9945C70.7297 19.9127 70.2388 19.9945 69.6666 20.3213ZM70.4436 28.4581L75.9227 26.9046L77.0264 30.6661L76.0863 30.9116L75.3093 28.2945L74.0419 28.6624L74.696 30.9522L73.7553 31.1977L73.1013 28.9079L70.7704 29.5619L70.4436 28.4581ZM71.711 33.1602L77.3944 32.6698L77.7623 36.8812L76.781 36.9629L76.5356 33.8966L75.2687 34.019L75.5136 36.8812L74.573 36.9629L74.2869 34.1009L72.7741 34.2233L73.0602 37.4126L72.0789 37.4944L71.711 33.1602ZM77.8034 38.9256L77.6398 41.0109C77.5991 41.5015 77.5173 41.8286 77.4355 42.074C77.3126 42.401 77.1083 42.6873 76.8222 42.8918C76.5356 43.0963 76.2495 43.2596 75.8409 43.3416C75.4729 43.4233 75.0232 43.4643 74.4912 43.4233C74.0419 43.3824 73.6329 43.3006 73.3056 43.137C72.897 42.9735 72.6104 42.7281 72.365 42.442C72.2019 42.2377 72.0789 41.9514 71.9971 41.5832C71.9153 41.338 71.9153 41.0109 71.9564 40.5611L72.12 38.435L77.8034 38.9256ZM76.7403 39.9886L72.9784 39.6616L72.9377 40.5202C72.897 40.8065 72.897 41.0517 72.897 41.2154C72.9377 41.3789 73.0195 41.5425 73.1013 41.665C73.2238 41.8286 73.3874 41.9514 73.6329 42.0331C73.8783 42.1149 74.2051 42.1966 74.6548 42.2377C75.1046 42.2783 75.4318 42.2783 75.6772 42.1966C75.9227 42.1556 76.127 42.074 76.2495 41.9514C76.4131 41.7879 76.4949 41.6241 76.5767 41.4197C76.6179 41.2563 76.6585 40.97 76.6997 40.4792L76.7403 39.9886ZM71.5067 44.1184L76.9858 45.5903L75.9227 49.6793L74.9821 49.4339L75.7591 46.4489L74.5323 46.1221L73.7965 48.9022L72.897 48.657L73.6329 45.8767L72.12 45.5087L71.3019 48.5752L70.3618 48.3298L71.5067 44.1184ZM70.0345 49.2702L75.1457 51.7647L74.0826 53.9315C73.7965 54.4632 73.5511 54.8721 73.3463 55.0766C73.142 55.2401 72.897 55.3627 72.5698 55.4036C72.2837 55.4445 71.9564 55.4036 71.6703 55.2401C71.2612 55.0354 71.0158 54.7902 70.8933 54.4222C70.7297 54.0952 70.7297 53.6863 70.8933 53.1955C70.6479 53.3592 70.4436 53.4818 70.1981 53.5227C69.9527 53.6046 69.5848 53.6863 69.0944 53.7272L67.7858 53.85L68.3992 52.6232L69.8709 52.4188C70.4024 52.3369 70.7297 52.2962 70.8933 52.2551C71.0158 52.2143 71.1388 52.1325 71.2206 52.0508C71.343 51.9689 71.4249 51.8054 71.5473 51.56L71.6703 51.3555L69.503 50.2925L70.0345 49.2702ZM72.488 51.7237L72.0789 52.5004C71.8746 52.9912 71.711 53.3183 71.711 53.4409C71.6703 53.6046 71.711 53.7272 71.7928 53.85C71.8339 53.9726 71.9564 54.0542 72.12 54.1361C72.2837 54.2178 72.4473 54.2587 72.6104 54.2178C72.7334 54.1769 72.897 54.0542 72.9784 53.9315C73.0195 53.85 73.1831 53.6046 73.3874 53.1548L73.7553 52.3778L72.488 51.7237ZM64.3104 58.4294L65.0463 57.448L66.3955 57.7753L67.704 55.9351L66.9682 54.8312L67.6629 53.8089L70.9751 58.9607L70.2388 59.9421L64.3104 58.4294ZM67.3768 58.0614L69.5436 58.6748L68.2767 56.7939L67.3768 58.0614ZM63.288 59.3289L66.4773 62.7634L67.7447 61.6187L68.3992 62.3137L65.0874 65.4213L64.4329 64.6854L65.6596 63.5405L62.4292 60.1058L63.288 59.3289ZM60.5485 61.6187L63.9014 66.239L62.9608 66.8933L59.6078 62.3137L60.5485 61.6187ZM60.3437 65.3395C60.6303 65.871 60.7939 66.3208 60.8346 66.7707C60.8757 67.0568 60.8346 67.3839 60.7528 67.7111C60.6709 67.9972 60.5485 68.2834 60.3437 68.4878C60.0987 68.8151 59.8126 69.0603 59.4036 69.3057C58.6677 69.7146 57.9319 69.7965 57.2367 69.592C56.5415 69.3874 56.01 68.856 55.5602 68.038C55.1105 67.2613 54.9469 66.4844 55.1512 65.7893C55.3559 65.0941 55.8057 64.5626 56.5415 64.1536C57.2774 63.7447 57.9725 63.663 58.6677 63.8673C59.3624 64.072 59.9351 64.5626 60.3437 65.3395V65.3395ZM59.3222 65.9527C59.0356 65.4213 58.6677 65.0533 58.218 64.8898C57.8089 64.7671 57.3998 64.808 56.9913 65.0124C56.6233 65.2167 56.3367 65.5439 56.2554 65.9936C56.1736 66.4435 56.2554 66.9341 56.5822 67.5067C56.9094 68.0789 57.2774 68.4471 57.6864 68.5697C58.095 68.7332 58.5041 68.6923 58.9127 68.4471C59.3222 68.2017 59.5672 67.8747 59.6897 67.4657C59.7715 67.0568 59.649 66.5253 59.3222 65.9527V65.9527ZM53.3111 65.8301L54.9875 71.2682L53.8838 71.5955L50.5715 68.6514L51.6758 72.2905L50.6533 72.6177L48.9769 67.1794L50.0811 66.8114L53.3522 69.7146L52.2891 66.1573L53.3111 65.8301Z" stroke="#231F20" stroke-width="0.341847" stroke-miterlimit="2.6131"/>
<path fill-rule="evenodd" clip-rule="evenodd" d="M58.7906 59.9007L58.7088 59.86C57.7682 59.1647 56.8281 58.5514 55.8874 57.9789C55.5607 58.5105 55.1923 59.0422 54.8244 59.4918C53.8842 60.6367 52.7393 61.5771 51.4308 62.2315C52.0441 62.5176 52.6986 62.8448 53.3115 63.1717L52.8618 64.0305C49.3864 62.1089 46.0335 61.1682 42.7214 61.1682C39.4096 61.2092 36.0976 62.2315 32.6222 64.2759L32.1316 63.458C32.5813 63.1717 33.0309 62.9265 33.5217 62.6811C33.1536 62.4767 32.8267 62.2315 32.4994 61.9861C31.927 61.5362 31.3955 61.0865 30.9456 60.5958C30.1689 59.7782 29.5146 58.8786 29.024 57.9382C28.0017 58.5105 27.0203 59.1647 26.039 59.9007L25.0576 59.4509L25.5074 59.1647C26.5297 58.3879 27.5521 57.6928 28.6151 57.0385C27.8382 55.2802 27.5111 53.3177 27.5521 51.2733L28.5332 51.3142C28.4515 53.1542 28.7377 54.9534 29.4327 56.5889C31.0276 55.6893 32.663 54.9534 34.2986 54.4217L34.2577 54.3398C34.2167 53.8083 34.1758 53.3177 34.1758 52.8269C34.1349 52.3363 34.1349 51.8048 34.1349 51.3142V51.2733H35.1163V51.355C35.0755 51.8048 35.0755 52.2956 35.1163 52.7862C35.1163 53.2359 35.1572 53.6857 35.1981 54.1355C37.4879 53.4403 39.7368 53.1132 42.0264 53.0723V51.2733H42.9668V53.0723C45.2565 53.1542 47.5056 53.5222 49.7955 54.2172C49.8361 53.7266 49.8768 53.2359 49.8768 52.7862C49.9179 52.2956 49.9179 51.8048 49.9179 51.355V51.2733H50.8581V51.3142C50.8581 51.8048 50.8581 52.3363 50.8174 52.8269C50.8174 53.3177 50.7763 53.8083 50.7356 54.3398L50.6949 54.5035C52.0441 54.9534 53.3527 55.5256 54.6612 56.2208C54.9473 56.3844 55.2334 56.507 55.5195 56.6705C56.0922 55.5665 56.5013 54.3398 56.7462 53.0723C57.1142 50.9053 56.9505 48.6565 56.1329 46.612C55.5195 44.9764 54.4976 43.5044 53.0254 42.2776L53.6388 41.5826C55.2334 42.8912 56.3372 44.4858 57.0324 46.2441C57.8912 48.4929 58.0955 50.9053 57.6869 53.2359C57.4414 54.6261 56.9917 55.9345 56.3783 57.1611C57.3596 57.7337 58.3002 58.3879 59.2815 59.0829L59.3222 59.1238L58.7906 59.9007ZM55.0698 57.5293C54.7837 57.3656 54.4976 57.2022 54.211 57.0796C53.0254 56.4251 51.7987 55.8936 50.572 55.4847C50.2859 57.4065 49.7955 59.4099 49.0185 61.2908C49.4271 61.4136 49.8361 61.5771 50.2452 61.7407C51.758 61.1275 53.0254 60.1461 54.0885 58.8786C54.4564 58.4697 54.7837 58.0199 55.0698 57.5293ZM49.6725 55.1577H49.6318C47.4238 54.4626 45.2158 54.0946 42.9668 54.0129V60.2278C44.6843 60.2278 46.4014 60.5141 48.119 61.0049C48.896 59.0829 49.3864 57.1202 49.6725 55.1577ZM42.0264 54.0129C39.7775 54.0537 37.5289 54.4217 35.3208 55.0759C35.607 57.1202 36.1385 59.2464 36.9972 61.2092C38.6736 60.6367 40.35 60.3504 42.0264 60.2687V54.0129ZM34.4212 55.3621C32.8676 55.8936 31.3545 56.5889 29.8416 57.4474C30.2915 58.3469 30.9049 59.1647 31.6409 59.9415C32.0496 60.3913 32.5403 60.8002 33.0719 61.2092C33.5217 61.5771 34.0123 61.9042 34.5031 62.1905C35.0346 61.9452 35.5661 61.7407 36.0976 61.5362C35.2389 59.5328 34.7075 57.4474 34.4212 55.3621Z" fill="#231F20"/>
<path fill-rule="evenodd" clip-rule="evenodd" d="M26.121 16.1912L26.2844 16.3137C27.225 16.9677 28.1652 17.6222 29.1056 18.1944C29.4327 17.6222 29.8009 17.1313 30.2096 16.6816C31.1502 15.5367 32.2949 14.5961 33.5626 13.942C32.9492 13.6559 32.3359 13.3287 31.6817 13.0019L32.1723 12.1431C35.6479 14.0645 38.9598 15.0051 42.2718 15.0051C45.543 14.964 48.773 13.9832 52.2077 12.0201C52.2484 11.9795 52.2484 12.0201 52.3302 11.9795L52.9029 12.7153C52.412 13.0019 51.9623 13.2469 51.5126 13.4923C51.8398 13.6966 52.2077 13.942 52.4938 14.1875C53.1072 14.6372 53.5976 15.0869 54.0885 15.5773C54.8655 16.395 55.4788 17.2949 56.0104 18.2356C56.9917 17.6629 57.9729 17.0088 58.9542 16.2725L59.5264 17.0088C58.5045 17.7853 57.4414 18.4805 56.419 19.0939C57.196 20.8933 57.5232 22.8559 57.4414 24.9002L56.5013 24.8591C56.5419 23.0195 56.2558 21.2201 55.6013 19.5843C53.966 20.4842 52.3714 21.2201 50.7356 21.7516V21.8334C50.7762 22.3243 50.8174 22.8559 50.858 23.3463C50.858 23.8371 50.858 24.328 50.858 24.8591V24.9002H49.9179V24.8184C49.9179 24.3687 49.9179 23.8778 49.8768 23.3874C49.8768 22.9377 49.8361 22.4879 49.7954 22.0382C47.5463 22.7329 45.2565 23.0602 42.9668 23.1008V24.9002H42.0264V23.1008C39.7775 23.0195 37.4879 22.6511 35.2389 21.9564C35.1981 22.4468 35.1572 22.9377 35.1162 23.3874C35.1162 23.8778 35.1162 24.3687 35.1162 24.8184V24.9002H34.1349V24.8591C34.1349 24.328 34.1349 23.8371 34.1758 23.3463C34.2167 22.8559 34.2167 22.3243 34.2986 21.8334V21.6698C32.9902 21.1794 31.6817 20.6479 30.3731 19.9527C30.087 19.7891 29.7599 19.6254 29.4736 19.4618C28.9014 20.6067 28.4925 21.8334 28.2878 23.1008C27.8789 25.227 28.0426 27.5173 28.8602 29.5612C29.3101 30.7061 29.9235 31.7286 30.7822 32.7098C30.8639 32.9553 30.5368 33.405 30.0462 33.3232C29.1466 32.3008 28.4515 31.1152 28.0017 29.9296C27.1023 27.6805 26.9386 25.227 27.3475 22.9377C27.5928 21.5473 28.0426 20.2388 28.656 19.0121C27.6746 18.4399 26.6932 17.7853 25.7121 17.0495L25.303 16.7223L25.4667 16.3543L26.121 16.1912ZM29.9235 18.6441C30.2096 18.8078 30.4959 18.9714 30.7822 19.0939C32.0088 19.7484 33.1944 20.2388 34.4212 20.6885C34.7075 18.726 35.2389 16.7634 35.9748 14.8826C35.5661 14.7602 35.1572 14.5961 34.7483 14.4329C33.2763 15.0463 31.9679 16.0276 30.9456 17.2538C30.5778 17.704 30.2505 18.1537 29.9235 18.6441ZM35.3616 21.0158C37.5696 21.711 39.8186 22.0789 42.0264 22.1195V15.9457C40.3092 15.9457 38.6328 15.6592 36.9155 15.1688C36.1385 17.0495 35.607 19.0532 35.3616 21.0158ZM42.9668 22.1607C45.2158 22.1195 47.4645 21.7516 49.6725 21.0976C49.3864 19.0121 48.8548 16.927 48.0372 14.964C46.32 15.5367 44.6431 15.8228 42.9668 15.9046V22.1607ZM50.6131 20.7703C52.1259 20.2799 53.6799 19.5843 55.1922 18.726C54.7018 17.8265 54.1296 17.0088 53.3933 16.2319C52.9436 15.7821 52.4532 15.3324 51.9211 14.9233C51.4714 14.5961 51.0217 14.2693 50.4906 13.9832C49.9586 14.2286 49.427 14.4329 48.9366 14.6372C49.7543 16.6404 50.327 18.726 50.6131 20.7703Z" fill="#231F20"/>
<path fill-rule="evenodd" clip-rule="evenodd" d="M23.4222 37.2077H20.56V41.7873H23.4222V43.4228H19.7422H18.9244V42.6049V36.3897V35.572H19.7422H23.4222V37.2077ZM25.7121 37.2485H26.6932V33.119H28.3289V43.5454H26.6932V38.8841H25.7121V43.5454H24.0764V33.119H25.7121V37.2485ZM18.761 33.2415H23.2997V34.8768H18.761V33.2415Z" fill="#FFF200"/>
<path fill-rule="evenodd" clip-rule="evenodd" d="M65.4551 43.5454H56.4595V41.133H58.0948V41.9099H65.4551V43.5454ZM56.4595 40.5196H58.1359L59.9349 37.8211H62.184V36.1858H60.998L61.9792 34.7137H62.184V33.0779H56.4595V34.7137H60.2621L59.3215 36.1858H57.1546V37.8211H58.2177L56.4595 40.5196ZM65.2504 33.119V40.9695H63.6557V39.8246H61.1616V38.1891H63.6557V33.119H65.2504Z" fill="#FFF200"/>
<path fill-rule="evenodd" clip-rule="evenodd" d="M42.6803 69.223C43.7845 69.223 44.6428 70.0817 44.6428 71.1857C44.6428 72.2487 43.7845 73.1484 42.6803 73.1484C41.6173 73.1484 40.7178 72.2487 40.7178 71.1857C40.7178 70.0817 41.6173 69.223 42.6803 69.223Z" fill="#231F20"/>
<path d="M42.6801 69.2225C43.7842 69.2225 44.6425 70.0812 44.6425 71.1852C44.6425 72.2482 43.7842 73.1479 42.6801 73.1479C41.617 73.1479 40.7175 72.2482 40.7175 71.1852C40.7175 70.0812 41.617 69.2225 42.6801 69.2225Z" stroke="#231F20" stroke-width="0.341847" stroke-miterlimit="2.6131"/>
<path fill-rule="evenodd" clip-rule="evenodd" d="M31.3545 33.8149C31.559 33.0379 33.6443 32.9972 34.5031 32.8331C36.2202 30.9117 37.5288 30.7888 39.9821 31.3615C41.4541 29.685 44.7656 29.9711 45.7062 31.5251C48.8136 30.5845 51.0217 33.4876 51.0628 32.7107C49.7543 27.5588 46.0334 29.9711 45.2158 29.1123C45.011 27.2727 39.3687 26.9048 39.1234 29.4396C37.6105 29.8893 36.2202 28.254 34.5031 31.0342C31.5999 30.8706 31.4363 31.4433 30.455 32.4246C28.8195 33.2011 31.3545 35.8999 31.6817 40.8066C31.7227 42.0332 32.4994 41.8697 32.6222 42.9329C32.7448 43.955 35.3207 43.628 35.3616 42.9736C35.4435 41.2972 35.1981 37.7399 35.1981 35.8999C34.7892 34.4689 34.1348 35.0411 33.9715 33.6513C33.1535 33.2422 32.2542 33.8967 31.3545 33.8149Z" fill="#FFF200"/>
<path d="M31.3545 33.8149C31.5589 33.0379 33.6443 32.9972 34.503 32.8331C36.2202 30.9117 37.5288 30.7887 39.9821 31.3614C41.4541 29.685 44.7655 29.9711 45.7066 31.5251C48.8136 30.5844 51.0216 33.4876 51.0628 32.7106C49.7542 27.5588 46.0334 29.9711 45.2158 29.1123C45.011 27.2727 39.3687 26.9048 39.1233 29.4395C37.6105 29.8893 36.2202 28.254 34.503 31.0342C31.5999 30.8706 31.4363 31.4432 30.455 32.4245C28.8195 33.2015 31.3545 35.8999 31.6817 40.8066C31.7227 42.0332 32.4994 41.8697 32.6222 42.9329C32.7448 43.955 35.3207 43.6279 35.3616 42.9736C35.4435 41.2972 35.1981 37.7399 35.1981 35.8999C34.7891 34.4689 34.1349 35.0411 33.9715 33.6513C33.1535 33.2422 32.2542 33.8967 31.3545 33.8149V33.8149Z" stroke="#00ADEF" stroke-width="0.341847" stroke-miterlimit="2.6131"/>
<path fill-rule="evenodd" clip-rule="evenodd" d="M51.7167 38.6807C52.453 38.3129 53.3113 39.2941 53.3931 40.0708C54.0472 46.5722 52.3712 43.9144 50.6536 48.2895C49.9996 49.7205 47.5868 49.9659 45.5429 48.3303C44.4386 47.6762 43.4574 48.0851 42.3125 48.0441C41.6584 47.0628 41.9036 45.3047 42.517 45.0593C45.829 44.3235 45.1338 45.5092 47.7504 45.5908C49.1001 45.9181 50.7354 43.0559 51.7167 38.6807Z" fill="#FFF200"/>
<path d="M51.7162 38.6807C52.4525 38.3129 53.3108 39.2941 53.3926 40.0708C54.0471 46.5722 52.3707 43.9144 50.6531 48.2895C49.999 49.7206 47.5863 49.9659 45.5423 48.3303C44.4381 47.6761 43.4569 48.0851 42.312 48.0441C41.6579 47.0628 41.9031 45.3047 42.5164 45.0593C45.8285 44.3235 45.1333 45.5091 47.7499 45.5908C49.0996 45.9181 50.7349 43.0558 51.7162 38.6807V38.6807Z" stroke="#00ADEF" stroke-width="0.341847" stroke-miterlimit="2.6131"/>
</g>
<defs>
<filter id="filter0_d_1159_6" x="0" y="0" width="84.625" height="84.6655" filterUnits="userSpaceOnUse" color-interpolation-filters="sRGB">
<feFlood flood-opacity="0" result="BackgroundImageFix"/>
<feColorMatrix in="SourceAlpha" type="matrix" values="0 0 0 0 0 0 0 0 0 0 0 0 0 0 0 0 0 0 127 0" result="hardAlpha"/>
<feOffset dy="4"/>
<feGaussianBlur stdDeviation="2"/>
<feComposite in2="hardAlpha" operator="out"/>
<feColorMatrix type="matrix" values="0 0 0 0 0 0 0 0 0 0 0 0 0 0 0 0 0 0 0.25 0"/>
<feBlend mode="normal" in2="BackgroundImageFix" result="effect1_dropShadow_1159_6"/>
<feBlend mode="normal" in="SourceGraphic" in2="effect1_dropShadow_1159_6" result="shape"/>
</filter>
</defs>
</svg>
